<svg width="38" height="38" viewBox="0 0 38 38" fill="none" xmlns="http://www.w3.org/2000/svg">
<path d="M16.427 23.75V16.625H12.8645V14.25H22.3645V16.625H18.802V23.75H16.427ZM3.16663 23.75V15.8333C3.16663 15.3847 3.31863 15.0089 3.62263 14.706C3.92663 14.4031 4.3024 14.2511 4.74996 14.25H9.49996C9.94857 14.25 10.3249 14.402 10.6289 14.706C10.9329 15.01 11.0843 15.3858 11.0833 15.8333V23.75H8.70829V21.375H5.54163V23.75H3.16663ZM5.54163 19H8.70829V16.625H5.54163V19ZM24.5416 23.75V15.8333C24.5416 15.3847 24.6936 15.0089 24.9976 14.706C25.3016 14.4031 25.6774 14.2511 26.125 14.25H33.25C33.6986 14.25 34.0749 14.402 34.3789 14.706C34.6829 15.01 34.8343 15.3858 34.8333 15.8333V23.75H32.4583V16.625H30.875V22.1667H28.5V16.625H26.9166V23.75H24.5416Z" fill="white"/>
</svg>
