<svg width="38" height="38" viewBox="0 0 38 38" fill="none" xmlns="http://www.w3.org/2000/svg">
<path d="M23.75 22.1666V17.4166H28.5V14.2499L34.8333 19.7916L28.5 25.3333V22.1666H23.75ZM22.1666 12.1916V14.2499H3.16663V12.1916L12.6666 6.33325L22.1666 12.1916ZM11.0833 15.8333H14.25V23.7499H11.0833V15.8333ZM4.74996 15.8333H7.91663V23.7499H4.74996V15.8333ZM20.5833 15.8333V19.7916L17.4166 22.6416V15.8333H20.5833ZM14.4083 25.3333L13.4583 26.1249L16.15 28.4999H3.16663V25.3333H14.4083ZM26.9166 23.7499V28.4999H22.1666V31.6666L15.8333 26.1249L22.1666 20.5833V23.7499H26.9166Z" fill="white"/>
</svg>
