<svg width="445" height="445" viewBox="0 0 445 445" fill="none" xmlns="http://www.w3.org/2000/svg">
<path d="M417.188 431.094H41.7188C34.3424 431.094 27.2682 428.164 22.0523 422.948C16.8365 417.732 13.9063 410.658 13.9062 403.281V27.8125C13.9062 24.1243 15.3714 20.5872 17.9793 17.9793C20.5872 15.3714 24.1243 13.9063 27.8125 13.9062C31.5007 13.9063 35.0378 15.3714 37.6457 17.9793C40.2536 20.5872 41.7187 24.1243 41.7188 27.8125V403.281H417.188C420.876 403.281 424.413 404.746 427.021 407.354C429.629 409.962 431.094 413.499 431.094 417.188C431.094 420.876 429.629 424.413 427.021 427.021C424.413 429.629 420.876 431.094 417.188 431.094Z" fill="#D9D9D9"/>
<path d="M135.586 375.469H100.82C92.5219 375.469 84.5634 372.172 78.6956 366.304C72.8278 360.437 69.5313 352.478 69.5312 344.18V212.07C69.5313 203.772 72.8278 195.813 78.6956 189.946C84.5634 184.078 92.5219 180.781 100.82 180.781H135.586C143.884 180.781 151.843 184.078 157.711 189.946C163.578 195.813 166.875 203.772 166.875 212.07V344.18C166.875 352.478 163.578 360.437 157.711 366.304C151.843 372.172 143.884 375.469 135.586 375.469ZM260.742 375.469H225.977C217.678 375.469 209.72 372.172 203.852 366.304C197.984 360.437 194.688 352.478 194.688 344.18V170.352C194.688 162.053 197.984 154.095 203.852 148.227C209.72 142.359 217.678 139.062 225.977 139.062H260.742C269.041 139.062 276.999 142.359 282.867 148.227C288.735 154.095 292.031 162.053 292.031 170.352V344.18C292.031 352.478 288.735 360.437 282.867 366.304C276.999 372.172 269.041 375.469 260.742 375.469ZM385.586 375.469H350.82C342.522 375.469 334.563 372.172 328.695 366.304C322.827 360.437 319.531 352.478 319.531 344.18V114.727C319.531 106.428 322.827 98.4697 328.695 92.6019C334.563 86.734 342.522 83.4375 350.82 83.4375H385.586C393.884 83.4375 401.842 86.734 407.71 92.6019C413.578 98.4697 416.875 106.428 416.875 114.727V344.18C416.875 352.478 413.578 360.437 407.71 366.304C401.842 372.172 393.884 375.469 385.586 375.469Z" fill="#D9D9D9"/>
</svg>
