<svg width="38" height="38" viewBox="0 0 38 38" fill="none" xmlns="http://www.w3.org/2000/svg">
<path d="M14.25 19C14.25 20.2598 14.7504 21.468 15.6412 22.3588C16.532 23.2496 17.7402 23.75 19 23.75C20.2598 23.75 21.468 23.2496 22.3588 22.3588C23.2496 21.468 23.75 20.2598 23.75 19C23.75 17.7402 23.2496 16.532 22.3588 15.6412C21.468 14.7504 20.2598 14.25 19 14.25C17.7402 14.25 16.532 14.7504 15.6412 15.6412C14.7504 16.532 14.25 17.7402 14.25 19Z" stroke="white" stroke-width="3.16667" stroke-linecap="round" stroke-linejoin="round"/>
<path d="M28.5 19H28.5158M9.5 19H9.51583M4.75 12.6667C4.75 11.8268 5.08363 11.0214 5.6775 10.4275C6.27136 9.83363 7.07681 9.5 7.91667 9.5H30.0833C30.9232 9.5 31.7286 9.83363 32.3225 10.4275C32.9164 11.0214 33.25 11.8268 33.25 12.6667V25.3333C33.25 26.1732 32.9164 26.9786 32.3225 27.5725C31.7286 28.1664 30.9232 28.5 30.0833 28.5H7.91667C7.07681 28.5 6.27136 28.1664 5.6775 27.5725C5.08363 26.9786 4.75 26.1732 4.75 25.3333V12.6667Z" stroke="white" stroke-width="3.16667" stroke-linecap="round" stroke-linejoin="round"/>
</svg>
