<svg width="21" height="22" viewBox="0 0 21 22" fill="none" xmlns="http://www.w3.org/2000/svg">
<path d="M1.007 1.9415C1.2425 1.043 2.0615 0.499997 2.9225 0.499997C3.4535 0.499997 3.9365 0.699497 4.304 1.025C4.70918 0.685117 5.22114 0.498825 5.75 0.498825C6.27886 0.498825 6.79082 0.685117 7.196 1.025C7.57621 0.685969 8.06809 0.499046 8.5775 0.499997C9.4385 0.499997 10.2575 1.043 10.493 1.9415C10.718 2.7995 11 4.1825 11 5.75C11 6.62533 10.7811 7.48676 10.3632 8.25593C9.94536 9.02509 9.34182 9.67756 8.6075 10.154C8.201 10.4195 8 10.7615 8 11.054V11.648C8 11.682 8.002 11.715 8.006 11.747C8.057 12.119 8.2415 13.5005 8.414 14.933C8.5835 16.3385 8.75 17.8715 8.75 18.5C8.75 19.2956 8.43393 20.0587 7.87132 20.6213C7.30871 21.1839 6.54565 21.5 5.75 21.5C4.95435 21.5 4.19129 21.1839 3.62868 20.6213C3.06607 20.0587 2.75 19.2956 2.75 18.5C2.75 17.87 2.9165 16.34 3.086 14.933C3.2585 13.5005 3.443 12.119 3.494 11.747L3.5 11.648V11.054C3.5 10.7615 3.299 10.4195 2.8925 10.154C2.15818 9.67756 1.55464 9.02509 1.13679 8.25593C0.71894 7.48676 0.500037 6.62533 0.5 5.75C0.5 4.1825 0.782 2.7995 1.007 1.9415ZM8 6.5C8 6.69891 7.92098 6.88967 7.78033 7.03033C7.63968 7.17098 7.44891 7.25 7.25 7.25C7.05109 7.25 6.86032 7.17098 6.71967 7.03033C6.57902 6.88967 6.5 6.69891 6.5 6.5V2.75C6.5 2.55108 6.42098 2.36032 6.28033 2.21967C6.13968 2.07901 5.94891 2 5.75 2C5.55109 2 5.36032 2.07901 5.21967 2.21967C5.07902 2.36032 5 2.55108 5 2.75V6.5C5 6.69891 4.92098 6.88967 4.78033 7.03033C4.63968 7.17098 4.44891 7.25 4.25 7.25C4.05109 7.25 3.86032 7.17098 3.71967 7.03033C3.57902 6.88967 3.5 6.69891 3.5 6.5V2.5775C3.5 2.42433 3.43916 2.27744 3.33085 2.16914C3.22255 2.06084 3.07566 2 2.9225 2C2.6735 2 2.5025 2.1485 2.4575 2.3225C2.1619 3.4413 2.00819 4.59283 2 5.75C1.99993 6.37555 2.15635 6.99119 2.45501 7.54084C2.75368 8.09049 3.18511 8.55669 3.71 8.897C4.3685 9.3245 5 10.076 5 11.054V11.648C5 11.748 4.9935 11.848 4.9805 11.948C4.9295 12.317 4.7465 13.6895 4.5755 15.113C4.4015 16.5605 4.25 17.984 4.25 18.5C4.25 18.8978 4.40804 19.2794 4.68934 19.5607C4.97064 19.842 5.35218 20 5.75 20C6.14782 20 6.52936 19.842 6.81066 19.5607C7.09196 19.2794 7.25 18.8978 7.25 18.5C7.25 17.984 7.1 16.5605 6.9245 15.1115C6.7535 13.6895 6.5705 12.317 6.5195 11.9465C6.50809 11.8479 6.50158 11.7488 6.5 11.6495V11.0555C6.5 10.0775 7.1315 9.326 7.79 8.8985C8.31511 8.55806 8.74667 8.09161 9.04534 7.54168C9.34402 6.99174 9.50032 6.37581 9.5 5.75C9.5 4.352 9.248 3.104 9.0425 2.3225C8.9975 2.15 8.825 2 8.5775 2C8.42434 2 8.27745 2.06084 8.16915 2.16914C8.06084 2.27744 8 2.42433 8 2.5775V6.5ZM12.5 7.25C12.5 5.45979 13.2112 3.7429 14.477 2.47703C15.7429 1.21116 17.4598 0.499997 19.25 0.499997C19.4489 0.499997 19.6397 0.579014 19.7803 0.719667C19.921 0.860319 20 1.05108 20 1.25V10.2095L20.0285 10.475C20.1478 11.5945 20.2623 12.7145 20.372 13.835C20.5565 15.719 20.75 17.831 20.75 18.5C20.75 19.2956 20.4339 20.0587 19.8713 20.6213C19.3087 21.1839 18.5456 21.5 17.75 21.5C16.9544 21.5 16.1913 21.1839 15.6287 20.6213C15.0661 20.0587 14.75 19.2956 14.75 18.5C14.75 17.831 14.9435 15.719 15.128 13.835C15.2225 12.8795 15.317 11.9645 15.3875 11.2865L15.4175 11H14C13.6022 11 13.2206 10.842 12.9393 10.5607C12.658 10.2794 12.5 9.89782 12.5 9.5V7.25ZM16.9955 10.3295L16.964 10.6325C16.8468 11.7487 16.7328 12.8652 16.622 13.982C16.4315 15.9125 16.25 17.927 16.25 18.5C16.25 18.8978 16.408 19.2794 16.6893 19.5607C16.9706 19.842 17.3522 20 17.75 20C18.1478 20 18.5294 19.842 18.8107 19.5607C19.092 19.2794 19.25 18.8978 19.25 18.5C19.25 17.9255 19.0685 15.9125 18.878 13.982C18.768 12.8651 18.654 11.7486 18.536 10.6325L18.5045 10.331L18.5 10.25V2.0525C17.2503 2.23288 16.1074 2.85763 15.2809 3.81223C14.4544 4.76683 13.9997 5.98732 14 7.25V9.5H16.25C16.3552 9.50004 16.4592 9.52219 16.5552 9.56503C16.6513 9.60787 16.7372 9.67044 16.8075 9.74866C16.8779 9.82689 16.9309 9.91902 16.9633 10.0191C16.9957 10.1192 17.0066 10.2249 16.9955 10.3295Z" fill="white"/>
</svg>
