<svg width="38" height="38" viewBox="0 0 38 38" fill="none" xmlns="http://www.w3.org/2000/svg">
<path d="M17.4958 19.0221H18.669C18.7292 18.6833 18.6215 18.3936 18.2463 18.3936C17.871 18.3936 17.605 18.5867 17.4958 19.0221ZM10.8822 19.6507L10.8236 19.6412C10.6495 19.6096 10.3423 19.5526 10.0731 19.7362C9.77071 19.9421 9.68521 20.3031 10.0003 20.425C10.3027 20.5406 10.7492 20.3411 10.811 20.026L10.8822 19.6507ZM32.4155 19.5415C32.5137 19.228 32.4599 18.8353 32.3554 18.696C32.0656 18.3096 31.399 18.6152 31.1948 19.3736C31.0618 19.8692 31.3531 20.2445 31.6793 20.2445C32.0292 20.2445 32.2461 19.9658 32.4155 19.5415ZM26.8422 19.6507L26.7836 19.6412C26.6095 19.6096 26.3007 19.5526 26.0331 19.7362C25.7307 19.9421 25.6452 20.3031 25.9603 20.425C26.2627 20.5406 26.7092 20.3411 26.7694 20.026L26.8422 19.6507Z" fill="white"/>
<path d="M25.4615 9.62673C27.9475 9.62673 30.3317 10.6143 32.0895 12.3721C33.8473 14.13 34.8349 16.5141 34.8349 19.0001C34.8349 21.486 33.8473 23.8702 32.0895 25.628C30.3317 27.3859 27.9475 28.3734 25.4615 28.3734C23.309 28.3781 21.2217 27.6342 19.5573 26.2691C20.8075 25.0684 21.7288 23.5671 22.2331 21.9087H21.4541C20.9692 23.3852 20.1235 24.7174 18.9936 25.7847C17.8708 24.7168 17.0312 23.3865 16.5505 21.9134H15.7715C16.2694 23.5649 17.1806 25.062 18.4189 26.2628C16.7612 27.622 14.6852 28.3675 12.5415 28.3734C10.0556 28.3734 7.67144 27.3859 5.9136 25.628C4.15576 23.8702 3.16821 21.486 3.16821 19.0001C3.16821 16.5141 4.15576 14.13 5.9136 12.3721C7.67144 10.6143 10.0556 9.62673 12.5415 9.62673C14.774 9.62673 16.8086 10.4342 18.4189 11.7373C17.1806 12.9382 16.2694 14.4352 15.7715 16.0867H16.5505C17.0312 14.6137 17.8708 13.2833 18.9936 12.2155C20.1235 13.2827 20.9692 14.6149 21.4541 16.0915H22.2331C21.7288 14.433 20.8075 12.9317 19.5573 11.731C21.2221 10.3656 23.31 9.62165 25.4631 9.62673M28.595 17.7271L27.9474 21.1946H28.9005L29.1935 19.6081C29.4595 18.6232 29.8695 18.6264 30.1102 18.6312H30.1466L30.4031 17.7287C29.9265 17.7287 29.6447 17.8981 29.499 18.0691L29.4135 17.7271H28.595ZM16.3495 16.8467H15.4058L14.7535 20.1353C14.5714 21.0774 15.2855 21.212 15.5024 21.212C15.7474 21.2199 15.9899 21.1608 16.2038 21.041L16.264 20.3412C15.7209 20.4251 15.6955 20.1828 15.7446 19.9168L16.0106 18.514H16.4935L16.663 17.7651H16.1563L16.3495 16.8467ZM18.1988 17.7176C16.7215 17.7176 16.4951 19.1378 16.4508 19.4228L16.446 19.445C16.4096 19.6635 16.3859 21.1993 18.0183 21.1993C18.4173 21.2104 18.9968 21.1629 19.228 21.041L19.372 20.3285C19.0204 20.3863 18.6644 20.4144 18.308 20.4124H18.2764C17.8995 20.4124 17.3327 20.414 17.4372 19.6524H19.4924C19.6032 19.0951 19.8565 17.7176 18.1988 17.7176ZM14.7297 17.8363C14.3386 17.6875 14.022 17.697 13.8589 17.7017H13.7908C13.6309 17.7017 12.5289 17.7017 12.3579 18.5251C12.2249 19.1663 12.4592 19.4307 12.684 19.5289C12.9215 19.6318 13.091 19.7284 13.235 19.8107C13.3089 19.8551 13.3797 19.8941 13.4472 19.9279C13.6847 20.0467 13.642 20.4472 13.3253 20.4472L13.2113 20.452C12.9675 20.4662 12.4703 20.4932 12.0808 20.3633L11.9478 21.0758C12.3832 21.1977 12.7331 21.1977 13.0593 21.1977H13.0957C13.3886 21.2009 14.421 21.2104 14.5698 20.2177C14.6474 19.711 14.4257 19.4798 14.2436 19.3722C14.0276 19.231 13.8016 19.1056 13.5675 18.9969C13.3744 18.9114 13.2287 18.5852 13.5786 18.4902C13.7971 18.4649 14.2436 18.4649 14.5096 18.5377L14.7297 17.8363ZM9.18013 17.013H7.63163L6.48371 19.5527L6.30163 17.013H4.79113L3.98046 21.1977H4.92413L5.50363 18.1736L5.75696 21.1977H6.65313L7.97046 18.2464L7.41471 21.1977H8.39163L9.18013 17.013ZM9.2878 18.5742L9.5158 18.5457C9.8008 18.5092 10.214 18.4554 10.461 18.4649L10.556 18.4665C10.8521 18.4728 11.1403 18.4792 11.0421 18.9478C11.0094 18.9499 10.9566 18.9499 10.8838 18.9478C10.3882 18.932 9.07246 18.8924 8.8413 20.1575C8.73205 20.87 9.34796 21.2342 9.83246 21.2088C10.3154 21.1851 10.45 21.1249 10.6178 21.003L10.7397 21.1977H11.6216L11.9969 19.3104C12.0935 18.8402 12.2502 17.7033 10.6669 17.7033L10.5149 17.7081C10.2584 17.7144 9.94488 17.7239 9.43346 17.8237L9.2878 18.5742ZM23.9906 17.8126C24.3057 17.8126 24.4735 17.8363 24.7158 17.9804L25.3333 17.3645C25.091 17.0985 24.8124 16.8372 24.0397 16.8087C23.3858 16.7834 22.2664 17.26 21.9117 18.5615C21.4272 20.3269 22.4912 21.1977 23.4713 21.1977C23.9906 21.1977 24.3057 21.1249 24.6192 20.9792L24.3405 20.1337C23.3747 20.4599 22.6844 19.9643 22.8427 18.9605C22.9741 18.1118 23.6755 17.811 23.9906 17.811M32.623 17.9994C32.4963 17.8664 32.3506 17.7144 32.0181 17.7144H31.9326C31.4133 17.7081 30.6644 17.7002 30.229 19.1885C29.9218 20.2382 30.544 21.1962 31.2201 21.1962C31.5352 21.1835 31.8487 21.0505 32.0435 20.9175L32.1638 21.1962H33.1787L34.002 16.7945H33.0093L32.756 18.1245C32.7092 18.0849 32.6648 18.0426 32.623 17.9978M25.2478 18.571L25.4758 18.5425C25.7608 18.5061 26.1725 18.4522 26.421 18.4617L26.516 18.4633C26.8121 18.4697 27.1003 18.476 27.0005 18.9447C26.9689 18.9468 26.9161 18.9468 26.8422 18.9447C26.3482 18.9288 25.0325 18.8892 24.7997 20.1543C24.692 20.8668 25.308 21.231 25.7925 21.2057C26.2754 21.1819 26.4084 21.1217 26.5778 20.9998L26.6997 21.1946H27.5816L27.9569 19.3072C28.0519 18.837 28.2102 17.7002 26.6269 17.7002L26.4749 17.7049C26.2184 17.7112 25.9049 17.7207 25.3935 17.8205L25.2478 18.571ZM20.1605 17.7603L19.5193 21.1946H20.463L20.7527 19.6223C21.014 18.6565 21.4272 18.6628 21.6647 18.666H21.7075L21.9497 17.7603C21.4795 17.7603 21.2008 17.9297 21.0551 18.0992L20.9712 17.7603H20.1605Z" fill="white"/>
</svg>
