<svg width="307" height="307" viewBox="0 0 307 307" fill="none" xmlns="http://www.w3.org/2000/svg">
<path d="M166.292 13.3672V97.3701C176.86 99.7905 186.532 105.14 194.199 112.805C201.867 120.47 207.219 130.141 209.643 140.708H293.633C290.643 107.943 276.267 77.2621 253.002 53.9976C229.738 30.7332 199.056 16.3567 166.292 13.3672ZM293.633 166.292H209.655C208.207 172.62 205.699 178.657 202.236 184.149L261.641 243.54C279.921 221.648 291.082 194.698 293.633 166.292Z" fill="#D9D9D9"/>
<path d="M243.541 261.641L184.136 202.236C177.044 206.689 169.066 209.542 160.758 210.594C152.45 211.646 144.013 210.873 136.035 208.328C128.057 205.784 120.73 201.529 114.565 195.861C108.401 190.193 103.547 183.249 100.343 175.512C97.1389 167.775 95.6615 159.432 96.0139 151.065C96.3663 142.698 98.54 134.509 102.383 127.069C106.227 119.629 111.647 113.117 118.266 107.988C124.886 102.858 132.544 99.2347 140.708 97.3701V13.3672C68.9854 19.827 12.7916 80.1013 12.7916 153.5C12.7916 231.209 75.7906 294.208 153.5 294.208C187.743 294.208 219.134 281.979 243.541 261.628" fill="#D9D9D9"/>
</svg>
