<svg width="38" height="32" viewBox="0 0 38 32" fill="none" xmlns="http://www.w3.org/2000/svg">
<path d="M35.0918 21.024L34.7382 19.524H30.7881L30.1596 21.0133L26.9935 21.0187C29.0288 16.8684 30.5393 13.7942 31.525 11.796C31.7827 11.2733 32.2399 11.0067 32.914 11.0107C33.4294 11.0142 34.2705 11.0147 35.4375 11.012L37.8855 21.02L35.0918 21.024ZM31.6758 17.4693H34.2229L33.2722 13.7093L31.6758 17.4693ZM11.2713 11.0093L14.4547 11.012L9.53352 21.0253L6.31085 21.0227C5.50047 18.3778 4.70017 15.7306 3.90995 13.0813C3.75283 12.5533 3.44172 12.184 2.84306 12.0093C2.30778 11.8538 1.41845 11.6133 0.175049 11.288V11.012H5.26124C6.14115 11.012 6.65496 11.3733 6.81994 12.1147C6.9865 12.8578 7.4055 14.7484 8.07696 17.7867L11.2713 11.0093ZM18.8291 11.012L16.3135 21.024L13.2826 21.02L15.7935 11.0093L18.8291 11.012ZM24.9728 10.8267C25.8794 10.8267 27.0217 11.0667 27.6785 11.288L27.1474 13.3627C26.5535 13.16 25.5762 12.8867 24.7544 12.896C23.5602 12.9133 22.8217 13.3387 22.8217 13.7467C22.8217 14.4107 24.1039 14.7453 25.4238 15.4707C26.929 16.2973 27.1286 17.04 27.1097 17.848C27.0893 19.5213 25.4238 21.1733 21.9104 21.1733C20.3077 21.1533 19.7295 21.04 18.4222 20.6453L18.9753 18.48C20.3061 18.952 20.8702 19.1027 22.0078 19.1027C23.0496 19.1027 23.9436 18.7453 23.9515 18.1227C23.9578 17.68 23.6372 17.46 22.4682 16.9133C21.2992 16.3667 19.6588 15.608 19.6808 14.084C19.7075 12.1347 21.8837 10.8267 24.9728 10.8267Z" fill="white"/>
</svg>
